<?xml version="1.0"?>
<svg xmlns="http://www.w3.org/2000/svg" xmlns:xlink="http://www.w3.org/1999/xlink" xmlns:svgjs="http://svgjs.com/svgjs" version="1.1" width="512" height="512" x="0" y="0" viewBox="0 0 74 74" style="enable-background:new 0 0 512 512" xml:space="preserve" class=""><g><path xmlns="http://www.w3.org/2000/svg" d="m49.376 39.114a.985.985 0 0 1 -.206-.021 1 1 0 0 1 -.67-.493l-10.2-18.31a1 1 0 1 1 1.746-.974l9.644 17.308 13.419-10.136a1 1 0 1 1 1.205 1.6l-14.335 10.824a1 1 0 0 1 -.603.202z" fill="#806ed3" data-original="#000000" style=""/><path xmlns="http://www.w3.org/2000/svg" d="m26.172 39.754a1 1 0 0 1 -.592-.194l-15.798-11.592a1 1 0 1 1 1.184-1.612l14.826 10.878 8.472-17.664a1 1 0 1 1 1.8.865l-8.993 18.75a1 1 0 0 1 -.9.567z" fill="#806ed3" data-original="#000000" style=""/><path xmlns="http://www.w3.org/2000/svg" d="m59.287 55.6h-44.421a1 1 0 0 1 -.966-.739l-6.958-25.747a1 1 0 0 1 1.932-.521l6.758 25.007h42.889l6.729-24.988a1 1 0 0 1 1.932.521l-6.929 25.727a1 1 0 0 1 -.966.74z" fill="#806ed3" data-original="#000000" style=""/><path xmlns="http://www.w3.org/2000/svg" d="m59.287 62.629h-44.5a2.339 2.339 0 0 1 -2.267-2.922l1.373-5.346a1 1 0 0 1 .969-.751h44.349a1 1 0 0 1 .969.751l1.374 5.347a2.341 2.341 0 0 1 -2.267 2.922zm-43.648-7.02-1.18 4.6a.34.34 0 0 0 .329.425h44.5a.34.34 0 0 0 .329-.424l-1.181-4.6z" fill="#806ed3" data-original="#000000" style=""/><path xmlns="http://www.w3.org/2000/svg" d="m37 21.44a5.034 5.034 0 1 1 4.886-3.84 5.008 5.008 0 0 1 -4.886 3.84zm0-8.069a3.04 3.04 0 1 0 .727.088 3.074 3.074 0 0 0 -.737-.088z" fill="#806ed3" data-original="#000000" style=""/><path xmlns="http://www.w3.org/2000/svg" d="m66.965 29.948a5.034 5.034 0 1 1 4.891-3.838 5.014 5.014 0 0 1 -4.891 3.838zm0-8.07a3.04 3.04 0 1 0 .727.088 3.074 3.074 0 0 0 -.732-.088z" fill="#806ed3" data-original="#000000" style=""/><path xmlns="http://www.w3.org/2000/svg" d="m7.035 29.948a5.038 5.038 0 1 1 1.2-.145 5.043 5.043 0 0 1 -1.2.145zm0-8.07a3.074 3.074 0 0 0 -.727.088 3.019 3.019 0 1 0 .727-.088z" fill="#806ed3" data-original="#000000" style=""/></g></svg>
