<?xml version="1.0"?>
<svg xmlns="http://www.w3.org/2000/svg" xmlns:xlink="http://www.w3.org/1999/xlink" xmlns:svgjs="http://svgjs.com/svgjs" version="1.1" width="512" height="512" x="0" y="0" viewBox="0 0 512 512" style="enable-background:new 0 0 512 512" xml:space="preserve" class=""><g><g xmlns="http://www.w3.org/2000/svg"><path d="m90.5 0h-30v362h-30v90h30v60h30v-60h30v-90h-30zm0 422h-30v-30h30z" fill="#ffffff" data-original="#000000" style="" class=""/><path d="m481.5 362h-30v-362h-30v362h-30v90h30v60h30v-60h30zm-30 60h-30v-30h30z" fill="#ffffff" data-original="#000000" style="" class=""/><path d="m331.5 0h-30v222h-30v90h30v200h30v-200h30v-90h-30zm0 282h-30v-30h30z" fill="#ffffff" data-original="#000000" style="" class=""/><path d="m210.5 0h-30v53.652h-30v90h30v368.348h30v-368.348h30v-90h-30zm0 113.652h-30v-30h30z" fill="#ffffff" data-original="#000000" style="" class=""/></g></g></svg>
