<?xml version="1.0"?>
<svg xmlns="http://www.w3.org/2000/svg" xmlns:xlink="http://www.w3.org/1999/xlink" xmlns:svgjs="http://svgjs.com/svgjs" version="1.1" width="512" height="512" x="0" y="0" viewBox="0 0 398.8 398.8" style="enable-background:new 0 0 512 512" xml:space="preserve" class=""><g>
<g xmlns="http://www.w3.org/2000/svg">
	<g>
		<path d="M328.6,125.6c-0.8-9.6-4.8-18.4-11.2-24.8c-6.4-6.4-14.8-10.4-24.8-10.4h-21.2V72c0-20-8-38-21.2-50.8    C237,8,219,0,199.4,0c-20,0-38,8-50.8,21.2C135.4,34,127.4,52,127.4,72v18.4h-21.2c-10,0-18.4,4-24.8,10.4    C75,107.2,71,116,70.2,125.6L49,362.4c0,1.2,0,2.4,0,2.8c0,8.8,3.6,17.2,10,23.2c6,5.6,14,9.6,22.4,10.4h0.4c1.2,0,2.4,0,3.2,0    h228.8c0.8,0,2,0,3.2,0c8.8-0.8,16.8-4.8,22.8-10.4c6.4-6,10-14.4,10-23.6c0-0.8,0-1.6,0-2.8L328.6,125.6z M149.4,72    c0-14,5.6-26.4,14.8-35.6c9.2-9.2,21.6-14.8,35.6-14.8s26.4,5.6,35.6,14.8S250.2,58,250.2,72v18.4H149.4V72z M327.4,365.2    c0,3.2-1.2,6-3.6,8c-2.4,2.4-6,4-9.2,4.4c0,0-0.4,0-1.2,0H85c-0.8,0-1.2,0-1.2,0h-0.4c-3.6-0.4-6.8-2-9.2-4.4    c-2.4-2-3.6-4.8-3.6-8V364l21.2-236.4c0.4-4.4,2.4-8.4,5.2-11.2c2.4-2.4,5.6-4,9.2-4h21.2v48.8c0,6,4.8,10.8,10.8,10.8    s10.8-4.8,10.8-10.8v-48.8h100v48.8c0,6,4.8,10.8,10.8,10.8s10.8-4.8,10.8-10.8v-48.8h21.2c3.6,0,6.8,1.6,9.2,4    c2.8,2.8,4.8,6.8,5.2,11.2l21.2,236.8V365.2z" fill="#806ed3" data-original="#000000" style="" class=""/>
	</g>
</g>
<g xmlns="http://www.w3.org/2000/svg">
</g>
<g xmlns="http://www.w3.org/2000/svg">
</g>
<g xmlns="http://www.w3.org/2000/svg">
</g>
<g xmlns="http://www.w3.org/2000/svg">
</g>
<g xmlns="http://www.w3.org/2000/svg">
</g>
<g xmlns="http://www.w3.org/2000/svg">
</g>
<g xmlns="http://www.w3.org/2000/svg">
</g>
<g xmlns="http://www.w3.org/2000/svg">
</g>
<g xmlns="http://www.w3.org/2000/svg">
</g>
<g xmlns="http://www.w3.org/2000/svg">
</g>
<g xmlns="http://www.w3.org/2000/svg">
</g>
<g xmlns="http://www.w3.org/2000/svg">
</g>
<g xmlns="http://www.w3.org/2000/svg">
</g>
<g xmlns="http://www.w3.org/2000/svg">
</g>
<g xmlns="http://www.w3.org/2000/svg">
</g>
</g></svg>
