<?xml version="1.0"?>
<svg xmlns="http://www.w3.org/2000/svg" xmlns:xlink="http://www.w3.org/1999/xlink" xmlns:svgjs="http://svgjs.com/svgjs" version="1.1" width="512" height="512" x="0" y="0" viewBox="0 0 22.884 22.884" style="enable-background:new 0 0 512 512" xml:space="preserve" class=""><g>
<g xmlns="http://www.w3.org/2000/svg">
	<g>
		<path d="M13.045,1.997l-1.969,7.872C8.68,8.867,5.479,8.429,2.642,9.307c0.574-2.522,1.97-7.31,1.97-7.31    C6.698,0.289,10.756,0.902,13.045,1.997z" fill="#8e96a1" data-original="#000000" style="" class=""/>
		<path d="M14.184,3.145c2.147,1.257,5.943,1.645,8.7,0.822l-2.251,7.589c-2.313,1.224-6.735,1.133-8.433-0.563L14.184,3.145z" fill="#8e96a1" data-original="#000000" style="" class=""/>
		<path d="M10.398,11.513l-1.967,7.87C5.953,18.243,2.794,17.481,0,18.82c0,0,1.297-5.069,1.966-7.588    C4.131,9.889,8.444,10.286,10.398,11.513z" fill="#8e96a1" data-original="#000000" style="" class=""/>
		<path d="M11.746,12.641c2.147,1.518,5.796,1.764,8.493,0.72l-2.247,7.592c-2.176,1.479-6.433,1.252-8.435-0.281L11.746,12.641z" fill="#8e96a1" data-original="#000000" style="" class=""/>
	</g>
</g>
<g xmlns="http://www.w3.org/2000/svg">
</g>
<g xmlns="http://www.w3.org/2000/svg">
</g>
<g xmlns="http://www.w3.org/2000/svg">
</g>
<g xmlns="http://www.w3.org/2000/svg">
</g>
<g xmlns="http://www.w3.org/2000/svg">
</g>
<g xmlns="http://www.w3.org/2000/svg">
</g>
<g xmlns="http://www.w3.org/2000/svg">
</g>
<g xmlns="http://www.w3.org/2000/svg">
</g>
<g xmlns="http://www.w3.org/2000/svg">
</g>
<g xmlns="http://www.w3.org/2000/svg">
</g>
<g xmlns="http://www.w3.org/2000/svg">
</g>
<g xmlns="http://www.w3.org/2000/svg">
</g>
<g xmlns="http://www.w3.org/2000/svg">
</g>
<g xmlns="http://www.w3.org/2000/svg">
</g>
<g xmlns="http://www.w3.org/2000/svg">
</g>
</g></svg>
