<?xml version="1.0" encoding="utf-8"?>
<!-- Generator: Adobe Illustrator 19.0.0, SVG Export Plug-In . SVG Version: 6.00 Build 0)  -->
<svg fill="#fff" version="1.1" id="Layer_1" xmlns="http://www.w3.org/2000/svg" xmlns:xlink="http://www.w3.org/1999/xlink" x="0px" y="0px"
	 viewBox="0 0 500 500" style="enable-background:new 0 0 500 500;" xml:space="preserve">
<g id="XMLID_1_">
	<path id="XMLID_11_" d="M405.1,237.9c-2.2,4.4-6.1,10.5-9.7,14.1H106c-2.1-2.9-7.1-9.4-9.3-14.1H405.1 M383.5,266.7
		c-3.6,5-9,9.8-14.8,13H131.7c-4.7-3.2-9.4-8-13.8-13H383.5 M350.7,293.4c-25.6,19.1-53.7,28.8-75,30.2c0-7.9,0-18.7,2.2-30.2H350.7
		 M432.1,143.5c2.2,23.4-5.4,51.9-19.8,80.7H305.7c3.9-6.8,9-13.3,14.7-19.9C351.4,168.1,399,145.6,432.1,143.5 M225.3,323.7
		c-20.5-1.4-48.7-11.1-74.5-30.2h73.5C225.7,304.9,225.7,315.8,225.3,323.7 M250.9,325.9c-8.3-7.9-15.5-18.7-23-32.4h45.7
		C266.4,307.1,258.5,318,250.9,325.9 M196.5,224.2h-107C75,195.4,67.9,166.9,70,143.5c32.8,2.1,80.8,24.5,111.8,60.8
		C187.1,210.9,192.5,217.4,196.5,224.2 M297,224.2h-92.3c-1.4-8.3-1.4-16.2-1.4-25.6c0-50.5,22.3-102.7,47.5-126.1
		c24.9,23.4,47.6,75.7,47.6,126.1C298.5,208,297.7,216,297,224.2"/>
	<path id="XMLID_16_" d="M424.2,344.2c4.4,0,7.9,3.6,7.9,8.3c0,4.3-3.5,7.9-7.9,7.9c-4.4,0-7.9-3.6-7.9-7.9
		C416.3,347.8,419.9,344.2,424.2,344.2z M424.2,345.3c-4,0-6.8,3.2-6.8,7.2c0,3.6,2.9,6.8,6.8,6.8c3.6,0,6.8-3.2,6.8-6.8
		C431.1,348.6,427.8,345.3,424.2,345.3z M426,352.6c0.4,0,1.4,0.3,1.4,1.8v2.5H426v-1.1c0-1.8-0.4-2.6-1.4-2.6h-1.8v3.6h-1.4v-9h2.9
		c1.8,0,3.2,1.1,3.2,2.6C427.5,351.4,426.7,352.6,426,352.6z M422.8,349.3v2.5h1.4c0.7,0,1.8-0.4,1.8-1.1c0-0.8-0.8-1.4-1.4-1.4
		H422.8"/>
	<path id="XMLID_17_" d="M404.7,427.5c15.1,0,27.8-6.1,27.8-21.2c0-8.6-6.1-14.4-15.9-17c-10.1-2.5-23-2.1-23-8.6
		c0.7-4.3,4.7-5.4,10.8-5.4c9.4,0,9.8,5,10.2,8.3H430c-1.1-11.9-10.8-20.2-26.3-20.2c-16.2,0-25.6,8.6-25.6,19.9
		c0,6.5,3.2,12.3,8.6,15.1c3.9,1.8,9.3,3.2,15.9,4.4c6.8,0.7,12.9,1.4,13.3,6.1c0,3.2-3.2,7.2-10.5,7.2c-10.5,0-12.6-5.8-12.6-9.7
		h-16.2C377,418.8,387.4,427.5,404.7,427.5"/>
	<path id="XMLID_20_" d="M337,427.5c6.9,0,13-2.2,18.1-5.4v4h15.5v-62H355v4.7c-5-3.6-11.1-5.4-18.1-5.4
		c-17.6,0-32.4,14.1-32.4,32.1C304.6,413.1,319.4,427.5,337,427.5z M319.8,395.4c0-9.8,8.3-18.1,18-18.1c9.4,0,17.3,8.3,17.3,18.1
		c0,9.3-7.9,17.7-17.3,17.7C328,413.1,319.8,404.7,319.8,395.4"/>
	<path id="XMLID_23_" d="M284.4,342.8v25.9c-5.4-3.6-11.5-5.4-18.4-5.4c-17.7,0-32.1,14.1-32.1,32.1c0,17.7,14.4,32,32.1,32
		c6.8,0,13.3-2.2,18.4-5.4v4h15.1v-83.3H284.4z M248.8,395.4c0-9.8,8.3-18.1,17.6-18.1c9.8,0,18.1,8.3,18.1,18.1
		c0,9.3-8.3,17.7-18.1,17.7C257,413.1,248.8,404.7,248.8,395.4"/>
	<path id="XMLID_26_" d="M212.4,426h15.1v-62h-15.1V426z M212.4,358.3h15.1v-15.5h-15.1V358.3"/>
	<path id="XMLID_29_" d="M170.9,427.5c6.8,0,12.9-2.2,18.4-5.4v4h15.5v-83.3h-15.5v25.9c-5.4-3.6-11.5-5.4-18.4-5.4
		c-17.7,0-32.4,14.1-32.4,32.1C138.5,413.1,153.2,427.5,170.9,427.5z M153.2,395.4c0-9.8,8.3-18.1,18.4-18.1
		c9.4,0,17.7,8.3,17.7,18.1c0,9.3-8.3,17.7-17.7,17.7C161.5,413.1,153.2,404.7,153.2,395.4"/>
	<path id="XMLID_32_" d="M99.5,427.5c7.2,0,13.3-2.2,18.7-5.4v4h15.1v-62h-15.1v4.7c-5.4-3.6-11.9-5.4-18.7-5.4
		c-17.7,0-32,14.1-32,32.1C67.5,413.1,81.9,427.5,99.5,427.5z M82.2,395.4c0-9.8,8.3-18.1,17.7-18.1c10.1,0,18.4,8.3,18.4,18.1
		c0,9.3-8.3,17.7-18.4,17.7C90.5,413.1,82.2,404.7,82.2,395.4"/>
</g>
</svg>
