<?xml version="1.0" encoding="utf-8"?>
<!-- Generator: Adobe Illustrator 19.0.0, SVG Export Plug-In . SVG Version: 6.00 Build 0)  -->
<svg fill="#fff" version="1.1" id="Layer_1" xmlns="http://www.w3.org/2000/svg" xmlns:xlink="http://www.w3.org/1999/xlink" x="0px" y="0px"
	 viewBox="0 0 500 500" style="enable-background:new 0 0 500 500;" xml:space="preserve">
<g id="XMLID_20_">
	<path id="XMLID_24_" d="M128.7,271.4c-2.9,0-5.2,2-5.2,5c0,3,2.3,5,5.2,5c2.9,0,5.2-2,5.2-5C133.9,273.4,131.6,271.4,128.7,271.4z
		 M128.7,279.9c-2.1,0-3.6-1.5-3.6-3.6c0-2,1.5-3.6,3.6-3.6c2.1,0,3.6,1.5,3.6,3.6C132.3,278.4,130.7,279.9,128.7,279.9z"/>
	<polygon id="XMLID_25_" points="179,253.9 153.8,253.9 156.7,210.1 140.3,253.9 117,253.9 154.1,155 179,155 176.1,199.3 
		192.8,155 216.2,155 	"/>
	<polygon id="XMLID_26_" points="182.1,253.9 219.2,155 242.6,155 205.5,253.9 	"/>
	<path id="XMLID_27_" d="M114.3,219.8c-32.7,38.4-63.5,89.5-36.3,113c26.4,22.8,59.4,9.3,81.9,0.3c22.5-9,271.1-117,271.1-117
		c2.4-1.2,1.9-2.7-1-1.9c-1.2,0.3-270.7,73.3-270.7,73.3C125.1,297.1,86.1,276.2,114.3,219.8z"/>
	<path id="XMLID_30_" d="M129.6,276.7c0.7,0,1.3-0.4,1.3-1.4c0-1.3-0.8-1.6-2.3-1.6h-2v5.4h1.4v-2.3h0.2l1.2,2.3h1.6L129.6,276.7z
		 M128.7,275.9h-0.8v-1.2h0.7c0.4,0,0.9,0,0.9,0.6C129.4,275.7,129.2,275.9,128.7,275.9z"/>
	<path id="XMLID_33_" d="M363.8,154.7c-2.9,0-5.2,2-5.2,5c0,3,2.3,5,5.2,5c2.9,0,5.2-2,5.2-5C369,156.7,366.7,154.7,363.8,154.7z
		 M363.8,163.2c-2.1,0-3.6-1.5-3.6-3.6c0-2,1.5-3.6,3.6-3.6c2.1,0,3.6,1.5,3.6,3.6C367.4,161.7,365.9,163.2,363.8,163.2z"/>
	<path id="XMLID_36_" d="M364.7,160c0.7,0,1.3-0.4,1.3-1.4c0-1.3-0.8-1.6-2.3-1.6h-2v5.4h1.4V160h0.2l1.2,2.3h1.6L364.7,160z
		 M363.9,159.1h-0.8v-1.2h0.7c0.4,0,0.9,0,0.9,0.6C364.6,159,364.3,159.1,363.9,159.1z"/>
	<path id="XMLID_39_" d="M348.4,171.4l6.3-16.5h-46.9h-0.2h-24.3l-24.5,29.7l11.3-29.7h-23.7l-36.8,99H233l15.7-41.4l1.1,41.4
		l71.8-0.2l6.8-19h-27.3l9-24h22.5l6.9-18.4H317l7.7-20.8H348.4z M273,247.3l-1.5-51.6l35.4-38.8L273,247.3z"/>
</g>
</svg>
