<?xml version="1.0" encoding="utf-8"?>
<!-- Generator: Adobe Illustrator 19.0.0, SVG Export Plug-In . SVG Version: 6.00 Build 0)  -->
<svg version="1.1" id="Layer_1" xmlns="http://www.w3.org/2000/svg" xmlns:xlink="http://www.w3.org/1999/xlink" x="0px" y="0px"
	 viewBox="0 0 500 500" style="enable-background:new 0 0 500 500;" xml:space="preserve">
<style type="text/css">
	.st0{fill:#fff;}
</style>
<g id="XMLID_19_">
	<path id="XMLID_21_" class="st0" d="M264,161.1c-1.2,0.2-2.3,4.5-4.6,6.8c-1.7,1.6-3.7,1.5-4.8,3.5c-0.4,0.8-0.3,2-0.8,3.3
		c-0.9,2.5-4.2,2.7-4.2,5.4c0,2.9,2.7,3.5,5.1,5.5c1.9,1.7,2,2.8,4.3,3.6c1.9,0.6,4.8-1.5,7.3-0.7c2.1,0.6,4.1,1.1,4.6,3.2
		c0.4,2,0,5.1-2.6,4.7c-0.9-0.1-4.6-1.4-9.2-0.9c-5.5,0.6-11.8,2.4-12.5,8.6c-0.3,3.4,3.9,7.5,8,6.7c2.8-0.6,1.5-3.9,3-5.5
		c2-2.1,13.6,7.3,24.3,7.3c4.5,0,7.9-1.1,11.2-4.6c0.3-0.3,0.7-0.8,1.2-0.9c0.5,0,1.2,0.5,1.5,0.7c8.6,6.9,15.1,20.8,46.8,21
		c4.5,0,9.5,2.2,13.7,5.9c3.7,3.4,5.9,8.7,8,14.1c3.2,8.1,8.9,16,17.5,24.7c0.5,0.5,7.6,6,8.1,6.4c0.1,0.1,0.6,1.3,0.4,2
		c-0.2,5.3-1,20.5,10.4,21.2c2.8,0.1,2.1-1.8,2.1-3.2c0-2.7-0.5-5.3,0.9-8c1.9-3.7-4.1-5.5-3.9-13.6c0.1-6-5-5-7.5-9.6
		c-1.5-2.7-2.8-4.1-2.7-7.3c0.6-18.4-3.9-30.4-6.1-33.4c-1.7-2.2-3.2-3.1-1.6-4.2c9.5-6.3,11.7-12.1,11.7-12.1
		c5.1-11.9,9.6-22.7,15.9-27.5c1.3-1,4.5-3.4,6.5-4.4c5.9-2.8,8.9-4.4,10.6-6.1c2.7-2.6,4.8-8.1,2.2-11.4c-3.2-4.1-8.7-0.8-11.2,0.6
		c-17.5,10.4-20.1,28.7-26.1,39.2c-4.8,8.4-12.7,14.6-19.7,15.1c-5.3,0.4-10.9-0.7-16.6-3.2c-13.7-6-21.3-13.8-23-15.2
		c-3.7-2.8-32.3-31-55.6-32.1c0,0-2.9-5.8-3.6-5.9c-1.7-0.2-3.4,3.4-4.7,3.9C267.2,165.3,265.2,160.9,264,161.1"/>
	<path id="XMLID_25_" class="st0" d="M161.8,329c-2.2-0.1-4-1.8-4-4.1l0-72.4h-23.9v79.8c0,3.9,3.2,7.1,7.1,7.1h41.7
		c3.9,0,7.1-3.2,7.1-7.1v-79.8h-23.9l0,72.4C165.9,327.2,164,329,161.8,329"/>
	<path id="XMLID_26_" class="st0" d="M241.7,252.5h-36.1c-4.3,0-7.8,3.5-7.8,7.8v79.1h23.9v-72.6c0-2.2,1.8-4,4-4
		c2.2,0,4,1.7,4.1,3.9v72.7h23.8v-72.7c0-2.2,1.8-3.9,4-3.9c2.2,0,4,1.8,4,4v72.6h23.9v-79.1c0-4.3-3.5-7.8-7.8-7.8H241.7"/>
	<path id="XMLID_29_" class="st0" d="M118,317.6H93.9v21.8H70v-86.9h48.1c4.3,0,7.7,3.5,7.7,7.8v49.4
		C125.8,314.1,122.3,317.6,118,317.6z M102,267c0-2.4-2-4.1-4-4.1h-4.1v44h4.1c2.1,0,4.1-1.7,4-4.1V267"/>
	<path id="XMLID_32_" class="st0" d="M325.7,339.5v-21.8h-8.1v21.8h-23.8v-79.1c0-4.3,3.5-7.8,7.8-7.8h40.3c4.3,0,7.8,3.5,7.8,7.8
		v79.1H325.7z M325.7,306.9v-40c-0.1-2.2-1.8-3.9-4.1-3.9c-2.2,0-4,1.8-4,4v40H325.7"/>
</g>
</svg>
